<svg id="Layer_1" data-name="Layer 1" xmlns="http://www.w3.org/2000/svg" viewBox="0 0 100 100"><defs><style>.cls-1{fill:#fff;}.cls-2,.cls-5{fill:#ef8700;}.cls-3{fill:#a02b22;}.cls-4{fill:#8d1a1d;}.cls-5{stroke:#ef8700;stroke-miterlimit:10;stroke-width:0.25px;}</style></defs><title>damasrose logo</title><path class="cls-1" d="M47.44,16.22c-1.56-.06-3-.15-4.2-.28l3.91-3,.29-.21,2.1-1.61L52.26,13c6.09.18,9.83,1,11,1.64-1.2.61-4.94,1.46-11,1.63-.72,0-1.46,0-2.24,0S48.25,16.24,47.44,16.22Z"/><path class="cls-2" d="M67.07,26.59l-.6,2.79a19.42,19.42,0,0,1-6,27.49l-.61,2.79a21.58,21.58,0,0,0,7.21-33.07ZM40.27,56.87a19.42,19.42,0,0,1-6-27.49l-.6-2.79a21.58,21.58,0,0,0,7.21,33.07Z"/><path class="cls-2" d="M35,32.45,39.6,53.78A17.3,17.3,0,0,1,35,32.45Z"/><path class="cls-2" d="M67.65,40.27a17.26,17.26,0,0,1-6.5,13.51l4.64-21.32A17.2,17.2,0,0,1,67.65,40.27Z"/><path class="cls-3" d="M48,16.22c.82,0,1.68,0,2.58,0s1.53,0,2.24,0c6.09-.17,9.84-1,11-1.63-1.2-.61-5-1.46-11-1.64V2.65a2,2,0,0,0-2-2H50a2,2,0,0,0-2,2V13h-.29c-5.72.22-9.25,1-10.41,1.62a21.93,21.93,0,0,0,6.5,1.35C45,16.07,46.4,16.16,48,16.22Z"/><path class="cls-3" d="M65.88,13.56a1.64,1.64,0,0,1,.36,1c0,1.39-1.59,2.31-5.16,3a55.08,55.08,0,0,1-8.3.79c-.73,0-1.48,0-2.24,0s-1.74,0-2.58,0a59,59,0,0,1-6.62-.56c-.47-.06-.92-.14-1.34-.22-3.57-.66-5.16-1.58-5.16-3a1.85,1.85,0,0,1,.89-1.53,5.18,5.18,0,0,0-2.91,5.88l1,4.53.44,1.92.25.2c.53.4,1.12.81,1.79,1.23s1.22.74,1.93,1.11A45.32,45.32,0,0,0,48,31.59c2.95.79,4.84.92,4.82,1.1s-2.49.14-4.89,0c2.39.38,2.34,1.15.07.92a46.64,46.64,0,0,1-10.89-2.4A14.93,14.93,0,0,0,40.6,33.4a13.23,13.23,0,0,0-3.94-1.54c3.93,2.26,6.84,3.85,7.64,4.23l.92.42c.91.4,1.34.51,1.33.56s-3.75-.6-3.76-.56,3.69.74,3.67.89a92.7,92.7,0,0,1-9.65-1q1.88,8.16,3.74,16.33a50.17,50.17,0,0,0,7.41.66c1.49,0,3.1,0,4.82-.08s2.83-.19,2.83-.19a33.37,33.37,0,0,1-3.88.9c3.31-.52,3.84-.31,3.84-.31s-1.88.52-2.79.75c-1.39.35-2.82.71-4.82,1a39.38,39.38,0,0,1-4.83.5c-.6,0-1.21,0-1.82,0l.34,1.49v0l0,.13a5.25,5.25,0,0,0,1.78,3.07h0a4.51,4.51,0,0,0,1.72.93h0a5.24,5.24,0,0,0,1.59.25H48v2.57a2,2,0,0,0,2,2c.08.57.25,1,.39,1s.29-.41.35-1a2,2,0,0,0,2-2V61.91H54a5.13,5.13,0,0,0,3.23-1.14l0,0A5.24,5.24,0,0,0,59,57.88l.05-.23.65-2.84.94-4.13c-2.14-.43-4.52-.9-4.51-1s.83.08.83,0-.72-.15-.71-.19a4.9,4.9,0,0,1,.65,0A19.17,19.17,0,0,0,61,49.27l.62-2.74a45.3,45.3,0,0,1-8.82-1.26A43,43,0,0,1,48,43.81a23.13,23.13,0,0,1,2.72.46c.28,0-3-.73-2.72-.7,1.71.16,3.31.26,4.82.31.66,0,1.37,0,2.79,0a61.85,61.85,0,0,0,6.73-.42q1.39-6.14,2.81-12.27l.38-1.65-1.65-.14a50.56,50.56,0,0,1-7.69-1.38s2.27.38,2.28.35-2.17-.5-2.17-.5l.9.08a11.71,11.71,0,0,0,4.68-.65A15.43,15.43,0,0,0,64,26.45c1.2-.58,2-.86,2-1.06a.14.14,0,0,0-.1-.08l-3.39.25c2.37-.48,2.93-.66,2.92-.74s-1.42.11-3.19.07a39.57,39.57,0,0,1-4.77-.38h0a47,47,0,0,1-4.7-.9c-.85-.21-1.63-.42-2.32-.63s-1.44-.45-2-.63l-.54-.2s3.48.57,3.49.55S48,21.91,48,21.91s1.89.21,4.82.31c1.73.06,3.33.06,4.82,0s2.87-.16,4.14-.3a38.19,38.19,0,0,0,5.75-1.11l.43-1.87A5.18,5.18,0,0,0,65.88,13.56Z"/><circle class="cls-3" cx="27.66" cy="21.4" r="1.48"/><circle class="cls-2" cx="77.73" cy="21.3" r="2.63" transform="translate(7.71 61.2) rotate(-45)"/><path class="cls-3" d="M61.9,5.13A1.23,1.23,0,1,1,60.67,3.9,1.23,1.23,0,0,1,61.9,5.13Z"/><path class="cls-3" d="M24.6,46.55a1.89,1.89,0,1,1-1.89-1.89A1.89,1.89,0,0,1,24.6,46.55Z"/><path class="cls-3" d="M71.15,58.94a1.29,1.29,0,1,1-1.29-1.29A1.29,1.29,0,0,1,71.15,58.94Z"/><circle class="cls-2" cx="83.2" cy="43.98" r="4.18"/><circle class="cls-2" cx="20.43" cy="31.46" r="2.64" transform="translate(-16.26 23.66) rotate(-45)"/><path class="cls-4" d="M14.67,65.69a5.69,5.69,0,0,1-1.34,2h-.19c-.14-.06-.22-.26-.26-.62a3,3,0,0,0-.73-1.75,2,2,0,0,0-1.5-.67,1.92,1.92,0,0,0-1.41.59,2,2,0,0,0-.59,1.43A2.71,2.71,0,0,0,9,68a11.48,11.48,0,0,0,2,2.18,10.27,10.27,0,0,1,2,2.39,3.83,3.83,0,0,1,.44,1.68,4.22,4.22,0,0,1-1.6,3.26,5.54,5.54,0,0,1-3.75,1.4,4.92,4.92,0,0,1-2.93-.82C4.38,77.5,4,77.05,4,76.7a4,4,0,0,1,.63-1.34,4.13,4.13,0,0,1,.73-1.06.53.53,0,0,1,.47.19A1.41,1.41,0,0,1,6,75.2a3.62,3.62,0,0,0,.79,2.23A2.23,2.23,0,0,0,8.44,78a2.7,2.7,0,0,0,1.92-.76,2.34,2.34,0,0,0,.82-1.77,2.24,2.24,0,0,0-.32-1.1,10.6,10.6,0,0,0-1.79-2A9,9,0,0,1,7.13,70a4.51,4.51,0,0,1-.45-1.9,4.33,4.33,0,0,1,1.21-3,4.16,4.16,0,0,1,3.23-1.34,4.35,4.35,0,0,1,2.54.7C14.33,65,14.67,65.38,14.67,65.69Z"/><path class="cls-4" d="M25.35,76.32q-2.46,2.55-4.05,2.55a1.56,1.56,0,0,1-1.17-.48,1.68,1.68,0,0,1-.46-1.22,9.87,9.87,0,0,1,1-3.51,5.93,5.93,0,0,0,.5-1.59c0-.29-.13-.43-.4-.43a2.39,2.39,0,0,0-1.2.57,10.38,10.38,0,0,0-1.67,1.54,25.09,25.09,0,0,0-.36,4.58l-2.31.54a19.95,19.95,0,0,1,.71-8.12,26.28,26.28,0,0,1,2.68-5.66q1.37-.54,2.37-.9a7.22,7.22,0,0,1,1.16-.34c.18,0,.33.14.46.43a2.89,2.89,0,0,1,.18,1.09,5.46,5.46,0,0,1-.67,2.44A22.56,22.56,0,0,1,20,71c.92-.53,1.54-.87,1.84-1a2.22,2.22,0,0,1,.94-.21,1.08,1.08,0,0,1,.85.38,1.5,1.5,0,0,1,.33,1,9.45,9.45,0,0,1-.74,2.89,10.36,10.36,0,0,0-.75,2.46.63.63,0,0,0,.14.4.41.41,0,0,0,.33.18c.44,0,1.26-.67,2.45-2Zm-7.19-4.25c2.47-2.88,3.7-5,3.7-6.36,0-.41-.11-.62-.34-.62s-.93.68-1.63,2A21,21,0,0,0,18.16,72.07Z"/><path class="cls-4" d="M36.42,76.32A22.46,22.46,0,0,1,34,78.38a2.51,2.51,0,0,1-1.37.47c-1.09,0-1.6-1-1.54-2.89a10.47,10.47,0,0,1-1.92,2.19,2.85,2.85,0,0,1-1.81.7A1.88,1.88,0,0,1,25.85,78a3.45,3.45,0,0,1-.64-2.1,5.65,5.65,0,0,1,.86-3,7.06,7.06,0,0,1,2.19-2.29,4.53,4.53,0,0,1,2.37-.87A1.85,1.85,0,0,1,32.45,71l2.12-1.18h.58l-.92,3a13.1,13.1,0,0,0-.7,3.15c0,.59.21.89.63.89a1.38,1.38,0,0,0,.89-.43c.33-.29.78-.72,1.37-1.31Zm-7.6.57c.7,0,1.35-.59,2-1.77a7.2,7.2,0,0,0,.92-3.26,1.45,1.45,0,0,0-.26-.91.84.84,0,0,0-.7-.33c-.69,0-1.34.59-2,1.77a7,7,0,0,0-.93,3.25,1.42,1.42,0,0,0,.27.9A.85.85,0,0,0,28.82,76.89Z"/><path class="cls-4" d="M50.8,76.32a3.24,3.24,0,0,1-1,.59,2.47,2.47,0,0,1-.77.18,2.37,2.37,0,0,1-1.48-.58q-1.89,2.34-3.9,2.34a2.18,2.18,0,0,1-2.1-1.62,4,4,0,0,1-3,1.62,2.07,2.07,0,0,1-1.65-.69,2.79,2.79,0,0,1-.6-1.9,10.31,10.31,0,0,1,.36-2.66c.25-.9.63-2,1.13-3.3l2.74-.51-.77,2.32a15.91,15.91,0,0,0-1,4.15,1.37,1.37,0,0,0,.26.88.78.78,0,0,0,.65.34c.55,0,1.11-.43,1.66-1.28A10.71,10.71,0,0,1,42,72.81l.85-2.51,2.78-.51-1.16,3.59a9.69,9.69,0,0,0-.56,2.74,1.61,1.61,0,0,0,.27,1,.86.86,0,0,0,.72.36,1.58,1.58,0,0,0,1-.4A7.06,7.06,0,0,0,47,75.83a4.23,4.23,0,0,1-.55-2.08A5,5,0,0,1,47.22,71,2.17,2.17,0,0,1,49,69.79c.45,0,.67.34.67,1a9.77,9.77,0,0,1-1.69,5,1.58,1.58,0,0,0,1.1.49c.46,0,1-.38,1.74-1.13Z"/><path class="cls-4" d="M61.88,76.32a22.46,22.46,0,0,1-2.38,2.06,2.54,2.54,0,0,1-1.37.47c-1.09,0-1.61-1-1.55-2.89a10.77,10.77,0,0,1-1.91,2.19,2.85,2.85,0,0,1-1.81.7A1.87,1.87,0,0,1,51.31,78a3.38,3.38,0,0,1-.64-2.1,5.56,5.56,0,0,1,.86-3,7.06,7.06,0,0,1,2.19-2.29,4.5,4.5,0,0,1,2.37-.87A1.83,1.83,0,0,1,57.9,71L60,69.79h.59l-.92,3A13.28,13.28,0,0,0,59,76c0,.59.21.89.64.89a1.41,1.41,0,0,0,.89-.43c.32-.29.78-.72,1.37-1.31Zm-7.6.57c.69,0,1.34-.59,2-1.77a7.2,7.2,0,0,0,.92-3.26A1.45,1.45,0,0,0,56.9,71a.86.86,0,0,0-.7-.33c-.69,0-1.35.59-2,1.77a7,7,0,0,0-.92,3.25,1.42,1.42,0,0,0,.27.9A.84.84,0,0,0,54.28,76.89Z"/><path class="cls-4" d="M69.63,76.32q-2.61,2.55-4,2.55a1.33,1.33,0,0,1-1.07-.53A2,2,0,0,1,64.11,77a8.06,8.06,0,0,1,1.57-3.93,5.59,5.59,0,0,1-1.69.55,11.84,11.84,0,0,1-2.11,2.68h-.24v-.93a13.29,13.29,0,0,0,1.46-1.81,1.26,1.26,0,0,1-.89-1.17,3.4,3.4,0,0,1,.54-1.71,1.7,1.7,0,0,1,1.5-.91.73.73,0,0,1,.81.83,5.69,5.69,0,0,1-.46,1.87c1.14-.12,2.15-1,3-2.63l.94,0-1,2.66c-.41,1.12-.67,1.88-.78,2.29a3.79,3.79,0,0,0-.18,1.07,1.14,1.14,0,0,0,.2.7.68.68,0,0,0,.55.26,1.15,1.15,0,0,0,.71-.26c.23-.17.74-.63,1.54-1.4Z"/><path class="cls-4" d="M84.92,76.32a18.72,18.72,0,0,1-2.22,1.9,3.22,3.22,0,0,1-1.8.63,1.31,1.31,0,0,1-1.08-.47,1.88,1.88,0,0,1-.4-1.27A9.32,9.32,0,0,1,80,74.27a11.17,11.17,0,0,0,.56-2.1c0-.22-.12-.33-.35-.33a.53.53,0,0,0-.24.07,2.36,2.36,0,0,0-.36.21,3.88,3.88,0,0,0-.42.35q-.23.21-.48.48c-.18.18-.36.38-.54.59a2.51,2.51,0,0,0-.54.9l-.34,1.49-.63,2.45L74,78.85l1-4.27c.07-.31.16-.77.27-1.37a10.65,10.65,0,0,0,.15-1.08c0-.24-.08-.35-.24-.35a.4.4,0,0,0-.2.07,1.84,1.84,0,0,0-.36.22l-.49.39-.6.57c-.23.23-.46.48-.7.76a2.55,2.55,0,0,0-.63,1.31c-.11.59-.18,1.12-.22,1.59s-.08,1-.09,1.58l-2.3.55c-.06-.79-.08-1.46-.08-2a12.47,12.47,0,0,1,.39-3.31,20.65,20.65,0,0,1,1.29-3.28l2.51-.49a23.7,23.7,0,0,0-1,3.27q2.79-3.26,4.28-3.25a1,1,0,0,1,.87.44,1.84,1.84,0,0,1,.34,1.16,12,12,0,0,1-.1,1.22,24.38,24.38,0,0,1,2.51-2.28A2.5,2.5,0,0,1,82,69.77a1.15,1.15,0,0,1,.94.46,1.81,1.81,0,0,1,.36,1.16,9.06,9.06,0,0,1-.61,2.86,9.05,9.05,0,0,0-.61,2.3c0,.39.14.58.42.58a1.45,1.45,0,0,0,.75-.36,16.74,16.74,0,0,0,1.69-1.64Z"/><path class="cls-4" d="M96,76.32a22.46,22.46,0,0,1-2.38,2.06,2.51,2.51,0,0,1-1.37.47c-1.09,0-1.6-1-1.54-2.89a10.47,10.47,0,0,1-1.92,2.19,2.85,2.85,0,0,1-1.81.7A1.88,1.88,0,0,1,85.43,78a3.38,3.38,0,0,1-.64-2.1,5.65,5.65,0,0,1,.86-3,7.06,7.06,0,0,1,2.19-2.29,4.53,4.53,0,0,1,2.37-.87A1.85,1.85,0,0,1,92,71l2.12-1.18h.58l-.92,3a13.1,13.1,0,0,0-.7,3.15c0,.59.21.89.63.89a1.38,1.38,0,0,0,.89-.43c.33-.29.78-.72,1.37-1.31Zm-7.6.57c.7,0,1.35-.59,2-1.77a7.2,7.2,0,0,0,.92-3.26A1.45,1.45,0,0,0,91,71a.84.84,0,0,0-.7-.33c-.69,0-1.34.59-2,1.77a7,7,0,0,0-.93,3.25,1.42,1.42,0,0,0,.27.9A.85.85,0,0,0,88.4,76.89Z"/><path class="cls-5" d="M52.33,83.38a3.46,3.46,0,0,0-1.12.34,6,6,0,0,0-1.25.81,5.78,5.78,0,0,0-.91.87,3.75,3.75,0,0,0-.91,2c-.07.7.12,1.38,0,1.4s-.06,0-.1-.09a1.91,1.91,0,0,1-.21-1.22,3.48,3.48,0,0,1,.24-1,3.88,3.88,0,0,1,.75-1.17,6.35,6.35,0,0,1,2-1.62,3.51,3.51,0,0,1,2-.57c1,.09,2.07.74,2,1.27,0,.09,0,.22-.12.25s-.17-.12-.33-.31a4.25,4.25,0,0,0-.52-.5,1.62,1.62,0,0,0-.71-.32h0A3,3,0,0,0,52.33,83.38Z"/><path class="cls-5" d="M54.42,84.26c.17.19.18.28.16.32s-.42,0-.92,0a3.55,3.55,0,0,0-1,.1,4.8,4.8,0,0,0-1.47.58,5.74,5.74,0,0,0-1.27,1.07,5.33,5.33,0,0,0-1,1.34c-.1.19-.21.39-.3.58-.19.4-.28.62-.37.61s-.1-.19-.11-.21c-.06-.32.11-.59.63-1.34.37-.52.55-.78.68-.93a6.17,6.17,0,0,1,.9-.9,5,5,0,0,1,1.36-.82,4.65,4.65,0,0,1,1.57-.32"/><path class="cls-5" d="M54.87,84.32a3.26,3.26,0,0,1,1.37-.16,3.12,3.12,0,0,1,1.09.33,2.8,2.8,0,0,1,.87.72,9,9,0,0,1,.62,1.22h0l-.25.1h0a6,6,0,0,0-.34-.72,3.58,3.58,0,0,0-.41-.61,2.25,2.25,0,0,0-.7-.5,2.64,2.64,0,0,0-1-.24,3.6,3.6,0,0,0-1.3.12"/><path class="cls-5" d="M55.08,84.52a5.19,5.19,0,0,1,.6.58,4.6,4.6,0,0,1,.61.9,3.92,3.92,0,0,1,.33,1,3.34,3.34,0,0,1,0,.78,4.11,4.11,0,0,1-.48,1.65h0a2.39,2.39,0,0,1-.26.42s-.22.27-.31.22,0-.1,0-.11a.37.37,0,0,1,.13-.23,3,3,0,0,0,.33-.58,2.52,2.52,0,0,0,.2-.45,3.06,3.06,0,0,0,.13-.57,3.32,3.32,0,0,0,0-1.08,3,3,0,0,0-.44-1.14,3,3,0,0,0-.36-.51c-.1-.12-.2-.22-.44-.46l-.65-.61"/><path class="cls-5" d="M54.9,84.59c0,.06-.11,0-.32.11a2.68,2.68,0,0,0-.72.35,1.11,1.11,0,0,0-.42.36.72.72,0,0,0-.1.44.73.73,0,0,0,.12.29l.17.2.19.2a4.23,4.23,0,0,1,.37.45c.05.07.13.17.22.32a2.58,2.58,0,0,1,.19.42,2.23,2.23,0,0,1,.14.7,3.31,3.31,0,0,1,0,.66,2.75,2.75,0,0,1-.11.68,3.19,3.19,0,0,1-.16.53,3.39,3.39,0,0,1-.24.5c-.12.22-.23.38-.28.46a4.46,4.46,0,0,1-.42.53,5.76,5.76,0,0,1-.58.55l-.23.18c-.05,0-.1.06-.17.12l-.12.1a1.46,1.46,0,0,1-.36.21c-.29.12-.66,0-.66,0s.35-.08.85-.38c.14-.08.27-.18.34-.22a3.91,3.91,0,0,0,.46-.37,5,5,0,0,0,.53-.58,5.06,5.06,0,0,0,.42-.64,4.61,4.61,0,0,0,.43-1.21,3.76,3.76,0,0,0,.08-.77,2.57,2.57,0,0,0-.07-.61,2.31,2.31,0,0,0-.1-.33,2.94,2.94,0,0,0-.16-.35,3.52,3.52,0,0,0-.34-.52l-.29-.32a3.94,3.94,0,0,1-.35-.4,1,1,0,0,1-.17-.57,1,1,0,0,1,.36-.63,1.62,1.62,0,0,1,.4-.27c.14-.08.16-.07.27-.14s.26-.25.39-.27S54.92,84.5,54.9,84.59Z"/><path class="cls-5" d="M53.4,86.43a4.62,4.62,0,0,0-1.17.12,4.67,4.67,0,0,0-1.16.43,3.78,3.78,0,0,0-.92.56,3.69,3.69,0,0,0-.58.61,5.36,5.36,0,0,0-.58,1,6.26,6.26,0,0,0-.35,1s0,0,0,.19-.06.27,0,.32.16.21.22.18,0-.18.06-.44A3.75,3.75,0,0,1,49,89.9a6.76,6.76,0,0,1,.26-.7,4.44,4.44,0,0,1,.31-.62,3.94,3.94,0,0,1,.37-.48c.15-.17.28-.29.31-.32s.22-.18.46-.34l.2-.12a5.25,5.25,0,0,1,.77-.34,4,4,0,0,1,.8-.22l.51-.05.43,0h.24"/><path class="cls-5" d="M49.92,88.1a.42.42,0,0,1,0,.13.56.56,0,0,1-.1.28s0,.14-.11.34a2.8,2.8,0,0,0-.11.66,2.17,2.17,0,0,0,.11.78,2.37,2.37,0,0,0,.23.46,1.88,1.88,0,0,0,1.68.76,1.73,1.73,0,0,0,.65-.14,1.92,1.92,0,0,0,.53-.39,2.57,2.57,0,0,0,.41-.53,1.84,1.84,0,0,0,.2-.66.81.81,0,0,0-.08-.56.55.55,0,0,0-.18-.2.83.83,0,0,0-.62-.12,1,1,0,0,0-.53.19.9.9,0,0,0-.33.39c0,.07-.11.26,0,.34a.14.14,0,0,0,.17,0c.05,0,0-.08.07-.19l.08-.17a.61.61,0,0,1,.31-.25.72.72,0,0,1,.48-.09.53.53,0,0,1,.42.22.52.52,0,0,1,.06.29,1.12,1.12,0,0,1-.1.43,1.74,1.74,0,0,1-.24.47,1.81,1.81,0,0,1-.35.37,1.76,1.76,0,0,1-.33.24,1.43,1.43,0,0,1-.45.13,1.61,1.61,0,0,1-.48,0,1.87,1.87,0,0,1-.39-.09,1.32,1.32,0,0,1-.37-.21,1.54,1.54,0,0,1-.42-.39,1.43,1.43,0,0,1-.18-.39,2,2,0,0,1-.1-.53,2.66,2.66,0,0,1,0-.57,3,3,0,0,1,.19-.58c0-.07.11-.24.23-.46.23-.39.42-.58.39-.61s-.11,0-.5.35"/><path class="cls-5" d="M48.15,88.76a1.62,1.62,0,0,0-.81.32,1.8,1.8,0,0,0-.49.58,2.63,2.63,0,0,0-.36.86,3.52,3.52,0,0,0,0,1.32,2.26,2.26,0,0,0,.16.73,2.11,2.11,0,0,0,.72.86,3.92,3.92,0,0,0,1.06.58,9.17,9.17,0,0,0,1.67.46c.73.14,1.3.22,2.09.31,1.08.14,1.08.11,1.65.2a9.48,9.48,0,0,1,1.93.5,3.73,3.73,0,0,1,1.27.75,2.74,2.74,0,0,1,.53.71c.39.78.21,1.67.41,1.63a.56.56,0,0,0,.17-.09s0-.11,0-.13a4.72,4.72,0,0,0-.43-1.6A2.94,2.94,0,0,0,57.1,96a3.68,3.68,0,0,0-.83-.59A5.47,5.47,0,0,0,54.94,95a9.86,9.86,0,0,0-1-.21l-.7-.09-.54-.06c-.45-.05-.72-.11-1.23-.19l-1.42-.22a6.58,6.58,0,0,1-1.49-.43,5,5,0,0,1-1.13-.68,1.71,1.71,0,0,1-.44-.45,2.17,2.17,0,0,1-.28-.86,2.78,2.78,0,0,1,0-.84,2.46,2.46,0,0,1,.39-1.08,1.67,1.67,0,0,1,.51-.6,2,2,0,0,1,.42-.2,2.35,2.35,0,0,1,.36-.09"/><path class="cls-5" d="M53.46,92.45a4,4,0,0,1-.73.33,3.51,3.51,0,0,1-1.52.13A3,3,0,0,1,50,92.55a1.79,1.79,0,0,1-.49-.37,3.93,3.93,0,0,1-.43-.67,3.57,3.57,0,0,1-.22-.44,5.34,5.34,0,0,1-.19-.52,5.13,5.13,0,0,1-.2-.8,4,4,0,0,1-.08-.59,1.36,1.36,0,0,0-.08-.54c0-.11-.14-.26-.19-.24s0,.23,0,.44a6,6,0,0,0,.72,2.77,3.15,3.15,0,0,0,.78,1,2.82,2.82,0,0,0,1.49.61A4.85,4.85,0,0,0,52.84,93l.3-.07"/><path class="cls-5" d="M51.88,91.49a.56.56,0,0,1,.22.35.69.69,0,0,1,0,.35c-.05.12-.11.17-.28.33s-.4.37-.38.4.31,0,.54-.21A1,1,0,0,0,52.4,92a.92.92,0,0,0-.2-.54"/><path class="cls-5" d="M52.32,94.56l.31-.66c.13-.28.22-.46.34-.68a7.5,7.5,0,0,1,.49-.77,11.06,11.06,0,0,1,.68-.93l.34-.4c.06-.07.18-.21.35-.38s.33-.28.42-.42a2,2,0,0,1,.22-.27l.09-.08c.21-.15.46-.07.75-.13a4.11,4.11,0,0,0,.4-.19c.46-.22.5-.21.77-.34a2.85,2.85,0,0,0,.67-.42,1.15,1.15,0,0,0,.41-.61.94.94,0,0,0-.07-.58,1.22,1.22,0,0,0-.35-.48C58,87.12,58,87.11,58,87s.4-.42.45-.45l.1,0a2,2,0,0,1,1-.22,1.53,1.53,0,0,1,.64.19,1.83,1.83,0,0,1,.72.92,2.38,2.38,0,0,1,.19.93,2.07,2.07,0,0,1-.13.93,1.77,1.77,0,0,1-.38.56,3,3,0,0,1-1.3.72c-.34.11-.38.1-1.28.34a11.22,11.22,0,0,0-1.21.35,6.34,6.34,0,0,0-1.24.79,7.28,7.28,0,0,0-.7.57l-.51.54-.47.47c-.3.31-.37.38-.47.5a1.44,1.44,0,0,1-.21.24l-.1.11c-.07.09-.06.14-.1.17s-.28.07-.32,0,.07-.19.42-.59l.58-.65c.16-.16.18-.16.47-.45l.34-.34.4-.39a5.49,5.49,0,0,1,.8-.61A5.55,5.55,0,0,1,56.8,91a4.7,4.7,0,0,1,.69-.19,18.6,18.6,0,0,0,1.86-.51,2.57,2.57,0,0,0,1-.63,1.79,1.79,0,0,0,.42-.79,1.88,1.88,0,0,0,0-.63,2.55,2.55,0,0,0-.17-.58,1.74,1.74,0,0,0-.62-.88,1.26,1.26,0,0,0-.82-.18,1.35,1.35,0,0,0-.5.17c-.15.09-.32.19-.32.32s.1.13.24.33a1.82,1.82,0,0,1,.17.34,1.27,1.27,0,0,1,0,.77c-.1.33-.34.5-.79.8a9.56,9.56,0,0,1-1.1.61c-.43.23-.65.35-.88.5s-.59.42-.77.56-.44.36-.69.6a8.05,8.05,0,0,0-.73.88,9.9,9.9,0,0,0-.64.87,5.57,5.57,0,0,0-.58,1.31"/><path class="cls-5" d="M46.5,92.19a2,2,0,0,0-.25,1,2,2,0,0,0,.47,1.27,2.33,2.33,0,0,0,.64.48,5.55,5.55,0,0,0,1.46.53,6.27,6.27,0,0,0,.74.16l.63,0,.27,0h.2c.13,0,.15-.24,0-.25s-.34,0-.94,0a3.88,3.88,0,0,1-1-.2,4.23,4.23,0,0,1-.87-.29,2.57,2.57,0,0,1-.74-.43,1.76,1.76,0,0,1-.61-1.33,1.94,1.94,0,0,1,.09-.57"/><path class="cls-5" d="M49.94,95.64a5.83,5.83,0,0,0,.44.85,5.62,5.62,0,0,0,.74.94,5.24,5.24,0,0,0,1.35,1,4.82,4.82,0,0,0,1.25.39,6.5,6.5,0,0,0,1,.06,10,10,0,0,0,1.16,0,5.45,5.45,0,0,0,1.47-.31,3.88,3.88,0,0,0,1.17-.61,4.94,4.94,0,0,0,.88-1,7.23,7.23,0,0,0,1.39-3.2,9,9,0,0,0,.11-1.93,5.1,5.1,0,0,0-.09-.76,4.39,4.39,0,0,0-.18-.69c-.12-.34-.25-.55-.16-.76,0,0,0-.08.07-.09s.41.9.52,1.49a7.09,7.09,0,0,1,.13,1.23,7.37,7.37,0,0,1-.07,1.12,9,9,0,0,1-.36,1.52,7,7,0,0,1-.35.94,14.6,14.6,0,0,1-1.08,1.64,4.37,4.37,0,0,1-.89.88,3.57,3.57,0,0,1-1.07.5,8,8,0,0,1-2.57.33A5.33,5.33,0,0,1,53.11,99,5,5,0,0,1,52,98.51a5.4,5.4,0,0,1-1.2-1,7.62,7.62,0,0,1-.71-.92,10.17,10.17,0,0,1-.58-1"/><path class="cls-5" d="M57.53,95.4v.08a.09.09,0,0,0,.07.1c.1,0,.12,0,.23.16A1.19,1.19,0,0,1,58,96s0,.07.05.13,0,.05,0,.05.14,0,.15-.05a.09.09,0,0,0,0-.12s0-.07-.07-.13a1.51,1.51,0,0,0-.33-.38.71.71,0,0,0-.25-.14A.09.09,0,0,0,57.53,95.4Z"/><path class="cls-5" d="M57.21,94.89c-.12-.11,0,0,0,.06s-.08.12-.08.12,0,0-.08,0l-.39-.21a4.5,4.5,0,0,0-.8-.37,3.86,3.86,0,0,0-.71-.17,3,3,0,0,0-.52,0h-.38c-.11,0-.08-.31,0-.31a1.25,1.25,0,0,1,.36,0h.09c.07,0,.33,0,.63.08a2.7,2.7,0,0,1,.38.09l.1,0,.17,0a2.44,2.44,0,0,1,.38.16,3.37,3.37,0,0,1,.38.19l.2.13.12.07"/><path class="cls-5" d="M56.75,85.38a.16.16,0,0,1,.12-.16c.17,0,.3.13.47.58a2.36,2.36,0,0,1,.19,1,2.66,2.66,0,0,1-.06.75c0,.29-.13.44-.22.47S57,88,57,87.94s.14-.21.22-.63a1.76,1.76,0,0,0,0-.82,2.16,2.16,0,0,0-.1-.43,1.89,1.89,0,0,0-.26-.51C56.81,85.49,56.75,85.45,56.75,85.38Z"/><path class="cls-5" d="M51.09,88.45c0-.1.27-.2.43-.28a4,4,0,0,1,.9-.35,2.53,2.53,0,0,1,.75,0,.84.84,0,0,1,.5.24c.14.1.24.16.26.34s-.08.14-.2.07-.21-.29-.48-.37a.68.68,0,0,0-.4-.07,2.31,2.31,0,0,0-.71.15l-.39.17a1.61,1.61,0,0,0-.44.25.12.12,0,0,1-.11,0s0,0-.05,0-.08,0-.06-.18"/><path class="cls-5" d="M47.75,91.1a.14.14,0,0,0-.13-.07.13.13,0,0,0-.11.07,3.75,3.75,0,0,0,.14.67,2,2,0,0,0,.2.38,2.92,2.92,0,0,0,.31.51,3.15,3.15,0,0,0,.69.64.67.67,0,0,0,.41.18.25.25,0,0,0,.12-.07.12.12,0,0,0,0-.14,3.41,3.41,0,0,0-.47-.28,1.71,1.71,0,0,1-.45-.39A2,2,0,0,1,48,92l-.18-.42C47.79,91.3,47.81,91.19,47.75,91.1Z"/><path class="cls-5" d="M52.2,89.83a.1.1,0,0,1-.06-.09.12.12,0,0,1,.07-.1.18.18,0,0,1,.16,0,.51.51,0,0,1,.19.14.44.44,0,0,1,.14.19.5.5,0,0,1,0,.25.81.81,0,0,1-.11.21l-.08.06-.07,0a.12.12,0,0,1-.1,0s0,0,0,0a.2.2,0,0,1,0-.07s0,0,.09-.06a.3.3,0,0,0,.08-.09.31.31,0,0,0,0-.16.3.3,0,0,0-.11-.17.23.23,0,0,0-.1-.07H52.2Z"/><ellipse class="cls-4" cx="60.78" cy="84.58" rx="0.37" ry="0.33"/><ellipse class="cls-4" cx="62.93" cy="87.33" rx="0.37" ry="0.33"/><ellipse class="cls-4" cx="62.8" cy="90.67" rx="0.37" ry="0.33"/><path class="cls-4" d="M14.32,87.22a2,2,0,0,1,.36-.34,2.21,2.21,0,0,1,.83-.39,2.6,2.6,0,0,1,.84-.09,2.33,2.33,0,0,1,.74.18,2.47,2.47,0,0,1,1.07,1,3.68,3.68,0,0,1,.51,1.29,4.53,4.53,0,0,1,.09,1.35,5.18,5.18,0,0,1-.24,1.34,3.43,3.43,0,0,1-1.13,1.67,2.67,2.67,0,0,1-.72.4,2.47,2.47,0,0,1-1.05.16,2.87,2.87,0,0,1-.74-.11,1.89,1.89,0,0,1-.57-.27V92.2a2,2,0,0,0,0,.25.9.9,0,0,0,.39.45,1.32,1.32,0,0,0,.36.15,1.55,1.55,0,0,0,.79,0,1.53,1.53,0,0,0,.41-.21,1.89,1.89,0,0,0,.57-.63,4.17,4.17,0,0,0,.49-1.68,6.34,6.34,0,0,0-.05-1.66,3.75,3.75,0,0,0-.16-.62,2,2,0,0,0-.21-.43,1.56,1.56,0,0,0-.35-.46,1,1,0,0,0-.49-.24,1,1,0,0,0-.46,0,1.3,1.3,0,0,0-.57.28,1.65,1.65,0,0,0-.44.47,2.36,2.36,0,0,0-.23.48,3,3,0,0,0-.07.3"/><path class="cls-4" d="M13,86.31h0l.68.42a6.56,6.56,0,0,1,.67.42v.27c0,.21,0,.48,0,1.38,0,.21,0,.76,0,1.85,0,.8,0,1.2,0,1.31,0,.75,0,1,0,1.28v.49H13v-.18c0-.17,0-.38,0-1.19V89.62C13,87.3,13,86.72,13,86.31Z"/><path class="cls-4" d="M23.11,88.91a1.87,1.87,0,0,0-.69-.29,2.06,2.06,0,0,0-.4,0,3,3,0,0,0-.67,0,2.1,2.1,0,0,0-.91.34,2.13,2.13,0,0,0-.49.41,3.58,3.58,0,0,0-.37.55,2.47,2.47,0,0,0-.23.69,3.27,3.27,0,0,0,0,1.47,2.5,2.5,0,0,0,.23.61,2.05,2.05,0,0,0,.8.85,1.89,1.89,0,0,0,.5.2,2.33,2.33,0,0,0,.94.07,1.86,1.86,0,0,0,.56-.14,2.34,2.34,0,0,0,.63-.42s.07,0,.07-.07c0-.67,0-.67,0-1.49,0-.51,0-.52,0-.47a2.62,2.62,0,0,1-.27,1.14,1.75,1.75,0,0,1-.33.49,1.15,1.15,0,0,1-.42.28.77.77,0,0,1-.33.07.69.69,0,0,1-.58-.25,1.47,1.47,0,0,1-.35-.54,2.64,2.64,0,0,1-.17-.77,3.35,3.35,0,0,1,.06-1,1.77,1.77,0,0,1,.2-.57,1.49,1.49,0,0,1,.62-.66,1.1,1.1,0,0,1,.58-.18,1.13,1.13,0,0,1,.48.1,1,1,0,0,1,.4.42,1.18,1.18,0,0,1,.12.27"/><path class="cls-4" d="M23.1,88.54l1.37.63v2.32c0,1.34,0,2.25,0,2.25H23.11"/><path class="cls-4" d="M25.55,88.54l1.29.6A1.94,1.94,0,0,1,27,89a1.56,1.56,0,0,1,.39-.25,1.71,1.71,0,0,1,.73-.18,2.45,2.45,0,0,1,.77,0,1.46,1.46,0,0,1,.46.2,1.09,1.09,0,0,1,.39.38l.07.11,0-.06s0,0,0-.06a2,2,0,0,1,.16-.16,1.19,1.19,0,0,1,.28-.21,1.78,1.78,0,0,1,.65-.23,1.45,1.45,0,0,1,.44,0,2,2,0,0,1,.71.11,1.35,1.35,0,0,1,.46.27,1.27,1.27,0,0,1,.25.3,1.12,1.12,0,0,1,.12.27.65.65,0,0,1,.06.2.74.74,0,0,1,0,.18,3.59,3.59,0,0,1,0,.48v3.38h-1.4V90.59a5.4,5.4,0,0,0,0-.88.54.54,0,0,0-.17-.35.45.45,0,0,0-.29-.14.78.78,0,0,0-.39,0,.7.7,0,0,0-.33.23.85.85,0,0,0-.1.14,2.7,2.7,0,0,0-.21.44,3.53,3.53,0,0,0-.12.43c0,.12,0,.22-.05.31v1c0,.09,0,1,0,1v.94h-1.4V90.91a10.24,10.24,0,0,0,0-1c0-.47-.22-.56-.27-.59a.74.74,0,0,0-.61,0,.88.88,0,0,0-.24.16,1.34,1.34,0,0,0-.35.58,4.1,4.1,0,0,0-.19,1.11c0,.06,0,.39,0,1v1.58H25.54"/><path class="cls-4" d="M37.54,88.92a1.87,1.87,0,0,0-.69-.29,2,2,0,0,0-.39,0,3.07,3.07,0,0,0-.68,0,2.25,2.25,0,0,0-.91.34,2.28,2.28,0,0,0-.48.42,2.11,2.11,0,0,0-.37.55,2.53,2.53,0,0,0-.24.68,3.22,3.22,0,0,0,0,1.47,2.3,2.3,0,0,0,.23.62,2.18,2.18,0,0,0,.8.85,2.69,2.69,0,0,0,.5.2,2.31,2.31,0,0,0,.93.06,1.84,1.84,0,0,0,.57-.14,2.49,2.49,0,0,0,.62-.42s.08,0,.08-.07V91.66c0-.51,0-.52,0-.47a2.46,2.46,0,0,1-.27,1.14,1.57,1.57,0,0,1-.32.49,1.44,1.44,0,0,1-.42.29,1,1,0,0,1-.34.06.72.72,0,0,1-.58-.25,1.49,1.49,0,0,1-.34-.53,2.45,2.45,0,0,1-.17-.78,3,3,0,0,1,.06-1,2,2,0,0,1,.19-.57,1.62,1.62,0,0,1,.62-.66,1.17,1.17,0,0,1,.58-.18.91.91,0,0,1,.48.11,1,1,0,0,1,.41.41,1.09,1.09,0,0,1,.11.27"/><path class="cls-4" d="M37.54,88.55l1.36.63v4.57H37.54"/><path class="cls-4" d="M43.07,89.81l.51-.54a1.84,1.84,0,0,0-.72-.5,2.52,2.52,0,0,0-.54-.14,2.8,2.8,0,0,0-.53,0,3.14,3.14,0,0,0-.9.08,2.71,2.71,0,0,0-.62.21,1.43,1.43,0,0,0-.31.17,1,1,0,0,0-.25.25,1.12,1.12,0,0,0-.2.44,1.27,1.27,0,0,0,.05.64A1.35,1.35,0,0,0,40,91l.2.14.32.19c.29.15.44.2.79.37a6,6,0,0,1,.55.3,1,1,0,0,1,.3.26.62.62,0,0,1,.11.2.53.53,0,0,1,0,.39.59.59,0,0,1-.29.26.48.48,0,0,1-.15.07,1.19,1.19,0,0,1-.39.07,2.33,2.33,0,0,1-.46,0,1.85,1.85,0,0,1-.5-.15.84.84,0,0,1-.29-.19,1.24,1.24,0,0,1-.1-.17L40,92.55l-.58.45a1.12,1.12,0,0,0,.2.25l.15.15a1.65,1.65,0,0,0,.73.32,3.14,3.14,0,0,0,.71.09,2.34,2.34,0,0,0,.52,0,2.68,2.68,0,0,0,.51-.09,4,4,0,0,0,.4-.12,2.53,2.53,0,0,0,.45-.24,1.63,1.63,0,0,0,.21-.19,1.13,1.13,0,0,0,.25-.53,1,1,0,0,0,0-.38,1.25,1.25,0,0,0-.14-.39,1.19,1.19,0,0,0-.34-.38l-.2-.13-.41-.25c-.28-.15-.3-.13-.72-.33s-.16-.1-.6-.34a.81.81,0,0,1-.25-.19A.57.57,0,0,1,40.8,90a.61.61,0,0,1,0-.39.49.49,0,0,1,.17-.21l.11-.06a1.83,1.83,0,0,1,.47-.14,2.48,2.48,0,0,1,.89.09,1,1,0,0,1,.4.21A.84.84,0,0,1,43.07,89.81Z"/><path class="cls-4" d="M80.74,89.8l.5-.54a1.84,1.84,0,0,0-.72-.5,2.62,2.62,0,0,0-.53-.14,3,3,0,0,0-.54,0,3.14,3.14,0,0,0-.9.08,2.71,2.71,0,0,0-.62.21,1.43,1.43,0,0,0-.31.17,1.14,1.14,0,0,0-.25.25,1.12,1.12,0,0,0-.2.44,1.27,1.27,0,0,0,0,.64,1.35,1.35,0,0,0,.48.57l.2.14.32.19c.29.15.44.2.79.37a6,6,0,0,1,.55.3,1.08,1.08,0,0,1,.31.26.62.62,0,0,1,.1.2.53.53,0,0,1,0,.39.61.61,0,0,1-.29.27l-.15.06a1.19,1.19,0,0,1-.39.07,2.33,2.33,0,0,1-.46,0,2,2,0,0,1-.5-.15.65.65,0,0,1-.28-.19,1,1,0,0,1-.11-.17l-.07-.14-.58.45a1.53,1.53,0,0,0,.2.25l.15.15a1.65,1.65,0,0,0,.73.32,3.14,3.14,0,0,0,.71.09,3.42,3.42,0,0,0,.52,0,3.12,3.12,0,0,0,.51-.1,4,4,0,0,0,.4-.12,2,2,0,0,0,.45-.24,1.63,1.63,0,0,0,.21-.19,1.09,1.09,0,0,0,.25-.53,1,1,0,0,0,0-.38,1,1,0,0,0-.14-.39,1.19,1.19,0,0,0-.34-.38,1.38,1.38,0,0,0-.2-.13l-.41-.25c-.28-.15-.3-.13-.72-.33s-.16-.1-.6-.34a.81.81,0,0,1-.25-.19.59.59,0,0,1-.14-.22.65.65,0,0,1,0-.4.71.71,0,0,1,.17-.21l.11-.06a1.83,1.83,0,0,1,.47-.14,1.87,1.87,0,0,1,.41,0,1.77,1.77,0,0,1,.48.09,1,1,0,0,1,.4.21A1,1,0,0,1,80.74,89.8Z"/><path class="cls-4" d="M74,89.48a1.3,1.3,0,0,1,1.28-.12,1.31,1.31,0,0,1,.5.44,1.68,1.68,0,0,1,.28.61,2.48,2.48,0,0,1,.09.87,2.38,2.38,0,0,1-.08.55,2,2,0,0,1-.21.56,1.11,1.11,0,0,1-.88.7,1.4,1.4,0,0,1-.63,0,1.71,1.71,0,0,1-1-1.22,2.64,2.64,0,0,1-.08-.49,2.77,2.77,0,0,1,.06-.76,3.53,3.53,0,0,1,.13-.4,2.5,2.5,0,0,1,.28-.47,1.21,1.21,0,0,1,.36-.32c.12-.06.16,0,.19-.09s-.16-.66-.4-.66h0a.71.71,0,0,0-.31.09A3.41,3.41,0,0,0,73,89a2.52,2.52,0,0,0-.71.78A2.81,2.81,0,0,0,72,91.54a2.72,2.72,0,0,0,.41,1.14,2.39,2.39,0,0,0,1.46,1,2.83,2.83,0,0,0,.77.08,2.16,2.16,0,0,0,.71-.1,2.21,2.21,0,0,0,1-.74,2.92,2.92,0,0,0,.45-.9,3.06,3.06,0,0,0,.12-1,2.27,2.27,0,0,0-1.28-2.22,2.59,2.59,0,0,0-1.68-.15"/><path class="cls-4" d="M68.2,87.15a3.09,3.09,0,0,1,2,0c.3.11.69.27.79.64a1,1,0,0,1-.25.87,1.5,1.5,0,0,0-.57-1.44,1.06,1.06,0,0,0-.48-.14,1.2,1.2,0,0,0-.83.31,1.71,1.71,0,0,0-.5.69,2.59,2.59,0,0,0-.16.81,6.71,6.71,0,0,0,0,.77c0,.25,0,.2,0,.35a5.65,5.65,0,0,1,0,.92.09.09,0,0,0,0,.1h.23a2.86,2.86,0,0,0,.6-.1,2.37,2.37,0,0,0,.8-.35,2.17,2.17,0,0,0,.73-.88,2.62,2.62,0,0,0,.19-1,1.83,1.83,0,0,0,0-.44l-.09-.3h0a1.83,1.83,0,0,0-.1-.25,1.28,1.28,0,0,0-.32-.39,1.08,1.08,0,0,0-.5-.2,4.59,4.59,0,0,0-1.52.06,2.43,2.43,0,0,1,.81-.59,2.2,2.2,0,0,1,.83-.17,2.28,2.28,0,0,1,1,.23,2.2,2.2,0,0,1,.48.33,2.25,2.25,0,0,1,.53.64,2.16,2.16,0,0,1,.26.8,2.52,2.52,0,0,1,0,1,2.38,2.38,0,0,1-.34.81,3.44,3.44,0,0,1-.3.35,3.53,3.53,0,0,1-.69.53l-.32.15-.2.08c-.06,0-.1,0-.11.05s0,0,.08.1l.08.12a3.18,3.18,0,0,0,.32.43c.12.15.06.1.52.73.13.18.25.36.38.53s.33.46.33.46l-.71,0-.81,0-.77-1.07-.43-.59-.22-.31-.1-.17H68.2v.58s0,.43,0,.9v.6H66.88l0-1.33,0-1.42v-4s0-.5,0-.64"/><path class="cls-4" d="M82.82,90.3c.88,0,2.11,0,2.11,0a1.76,1.76,0,0,0-.14-.68c-.06,0-.14-.25-.35-.31a1.14,1.14,0,0,0-1,.1,2.23,2.23,0,0,0-.62.89c-.25.3-.86-.73-.77-1,0-.09.15-.16.37-.3a2.17,2.17,0,0,1,.36-.19,2.89,2.89,0,0,1,.77-.2,3,3,0,0,1,.69,0l.31.07.22.08.23.15a1.13,1.13,0,0,1,.29.27,1,1,0,0,1,.16.29,1.4,1.4,0,0,1,.13.41c0,.09,0,.15,0,.22,0,.22,0,.28,0,.4a.16.16,0,0,1,0,.07.17.17,0,0,1,0,.1.25.25,0,0,1-.1.12.56.56,0,0,1-.13.07.62.62,0,0,1-.19,0h-.57c-.09,0-.09,0-.38,0H83c-.1,0-.21,0-.31,0h0a.35.35,0,0,0,0,.13c0,.06,0,0,0,.14a1.58,1.58,0,0,0,0,.23,1.94,1.94,0,0,0,.08.44,2.28,2.28,0,0,0,.17.51,1.71,1.71,0,0,0,.1.2.9.9,0,0,0,.2.26,1.08,1.08,0,0,0,.33.23,1.1,1.1,0,0,0,.36.1,1.26,1.26,0,0,0,.35,0,.79.79,0,0,0,.28,0,1.18,1.18,0,0,0,.31-.16.69.69,0,0,0,.18-.19,1.14,1.14,0,0,0,.12-.15l.5.41-.08.11-.14.15a1.21,1.21,0,0,1-.26.23l-.25.13-.15.06c-.18.06-.32.09-.4.11a3.35,3.35,0,0,1-.5,0,2.77,2.77,0,0,1-.51,0,3.34,3.34,0,0,1-.47-.13,2.87,2.87,0,0,1-.35-.17,2.34,2.34,0,0,1-.39-.3,2.69,2.69,0,0,1-.28-.31c-.12-.16-.2-.3-.22-.33a2.88,2.88,0,0,1-.24-.64,2.79,2.79,0,0,1-.07-.41,3.88,3.88,0,0,1,.07-.95l.07-.28a2.73,2.73,0,0,1,.26-.54,4.71,4.71,0,0,1,.29-.41"/></svg>